<svg viewBox="0 0 200 200" xmlns="http://www.w3.org/2000/svg" role="img" aria-label="Brain the big-headed scholar">
  <title>Brain</title>
  <!-- palette: bone#F5F0E6 ink#1A1623 dusk#4A3A5C teal-fog#5E8A8C lavender#B8A4C9 blush#D4A5A5 -->
  <defs><style>.brain-body { fill:#5E8A8C; stroke:#1A1623; stroke-width:2.5;
               stroke-linejoin:round; stroke-linecap:round; }
.brain-eye { fill:#F5F0E6; stroke:#1A1623; stroke-width:1.5; }
.brain-pupil { fill:#1A1623; }
.brain-mouth { fill:none; stroke:#1A1623; stroke-width:2;
                stroke-linecap:round; stroke-linejoin:round; }
.brain-accent { stroke:#1A1623; stroke-width:1.5;
                 stroke-linecap:round; stroke-linejoin:round; }
.ink { stroke:#1A1623; fill:none; stroke-linecap:round;
        stroke-linejoin:round; }
.shadow { fill:#4A3A5C; opacity:0.35; }
.sketch { stroke:#1A1623; fill:none; opacity:0.4; stroke-width:1;
           stroke-linecap:round; }
.hi { fill:#F5F0E6; }

.brain-body { fill:#F5F0E6; }
.sub-body { fill:#4A3A5C; stroke:#1A1623; stroke-width:2;
             stroke-linejoin:round; }
.wisp { stroke:#B8A4C9; fill:none; stroke-width:2.2;
         stroke-linecap:round; opacity:0.9; }</style></defs>
  <path class="shadow" d="M48,108 C44,60 80,32 104,33 C128,34 162,60 158,108 C156,116 52,116 48,108 Z"/>
  <path class="sub-body" d="M82,110 Q100,128 118,110 L122,150 Q100,160 78,150 Z"/>
  <path class="ink" stroke-width="2" fill="#1A1623" d="M82,158 Q84,166 92,164 Q90,158 82,158 Z"/>
  <path class="ink" stroke-width="2" fill="#1A1623" d="M108,164 Q116,166 118,158 Q110,158 108,164 Z"/>
  <path class="brain-body" d="M42,100 C38,54 74,28 100,28 C128,28 162,54 158,100 C156,108 140,112 100,112 C60,112 44,108 42,100 Z"/>
  <path class="ink" stroke-width="1.6" fill="none" d="M52,70 Q74,58 100,68 Q126,78 150,64"/>
  <path class="sketch" d="M60,88 Q80,80 100,86 Q122,92 144,84"/>
  <path class="brain-body" d="M40,82 Q30,86 34,98 Q42,100 44,92 Z"/>
  <path class="brain-body" d="M160,82 Q170,86 166,98 Q158,100 156,92 Z"/>
  <path class="wisp" d="M32,92 q-6,-8 -2,-14 q6,-4 2,-12"/>
  <path class="wisp" d="M168,92 q6,-8 2,-14 q-6,-4 -2,-12"/>
  <path d="M72,82 Q82,69 92,82" stroke="#1A1623" stroke-width="2.6" fill="none" stroke-linecap="round"/>
  <path d="M108,82 Q118,69 128,82" stroke="#1A1623" stroke-width="2.6" fill="none" stroke-linecap="round"/>
  <path d="M93.0,98 Q100,107 107.0,98 Z" fill="#1A1623"/><path d="M97.5,100 L100,104 L102.5,100 Z" fill="#F5F0E6"/>
  <circle cx="118" cy="80" r="14" fill="none" stroke="#1A1623" stroke-width="1.4"/>
  <path class="ink" stroke-width="1.2" fill="none" d="M132,82 q6,6 2,16 q-4,8 2,14"/>
</svg>
