<svg viewBox="0 0 200 200" xmlns="http://www.w3.org/2000/svg" role="img" aria-label="Brain the intelligent creature">
  <title>Brain</title>
  <defs>
    <style>
      .brain-body { fill: #E6B3FF; stroke: #8B00FF; stroke-width: 2; }
      .brain-eye { fill: #FFFFFF; stroke: #000000; stroke-width: 1.5; }
      .brain-pupil { fill: #000000; }
      .brain-mouth { fill: none; stroke: #000000; stroke-width: 2; }
      .brain-wrinkle { fill: none; stroke: #8B00FF; stroke-width: 1.5; }
    </style>
  </defs>
  
  <!-- Wrinkly brain-like body -->
  <circle class="brain-body" cx="100" cy="115" r="48"/>
  
  <!-- Brain wrinkles -->
  <path class="brain-wrinkle" d="M 80 100 Q 85 95 90 100"/>
  <path class="brain-wrinkle" d="M 85 110 Q 90 105 95 110"/>
  <path class="brain-wrinkle" d="M 110 100 Q 115 95 120 100"/>
  <path class="brain-wrinkle" d="M 105 110 Q 110 105 115 110"/>
  <path class="brain-wrinkle" d="M 90 130 Q 95 125 100 130"/>
  <path class="brain-wrinkle" d="M 100 135 Q 105 130 110 135"/>
  
  <!-- Left eye intelligent -->
  <circle class="brain-eye" cx="85" cy="105" r="10"/>
  <circle class="brain-pupil" cx="85" cy="105" r="5"/>
  
  <!-- Right eye intelligent -->
  <circle class="brain-eye" cx="115" cy="105" r="10"/>
  <circle class="brain-pupil" cx="115" cy="105" r="5"/>
  
  <!-- Smart smile -->
  <path class="brain-mouth" d="M 90 125 Q 100 135 110 125"/>
  
  <!-- Left arm thinking pose -->
  <ellipse class="brain-body" cx="45" cy="120" rx="12" ry="35"/>
  <circle class="brain-body" cx="38" cy="155" r="8"/>
  
  <!-- Right arm -->
  <ellipse class="brain-body" cx="155" cy="120" rx="12" ry="35"/>
  <circle class="brain-body" cx="162" cy="155" r="8"/>
  
  <!-- Feet -->
  <ellipse class="brain-body" cx="80" cy="165" rx="15" ry="11"/>
  <ellipse class="brain-body" cx="120" cy="165" rx="15" ry="11"/>
</svg>
