<svg viewBox="0 0 200 200" xmlns="http://www.w3.org/2000/svg" role="img" aria-label="Cheery the celebration imp">
  <title>Cheery</title>
  <defs>
    <style>
      /* bone #F5F0E6 ink #1A1623 dusk #4A3A5C lavender #B8A4C9 blush #D4A5A5 pop #D97B3A */
      .cheery-body{fill:#4A3A5C;stroke:#1A1623;stroke-width:2.5;stroke-linejoin:round;stroke-linecap:round}
      .cheery-eye{fill:#F5F0E6;stroke:#1A1623;stroke-width:1.5}
      .cheery-pupil{fill:#1A1623}
      .cheery-mouth{fill:#1A1623;stroke:#1A1623;stroke-width:1.5;stroke-linejoin:round;stroke-linecap:round}
      .cheery-accent{fill:#D97B3A;stroke:#1A1623;stroke-width:1.5;stroke-linejoin:round;stroke-linecap:round}
      .stitch{fill:none;stroke:#1A1623;stroke-width:1;stroke-dasharray:3 3;stroke-linecap:round}
      .detail{fill:none;stroke:#1A1623;stroke-width:1;stroke-linecap:round}
    </style>
  </defs>
  <path d="M60 184 C52 142 60 96 104 92 C148 96 158 138 150 180 C136 186 118 184 100 184 C82 185 70 188 60 184 Z" fill="#4A3A5C" opacity="0.35"/>
  <path class="cheery-body" d="M56 178 C48 138 58 92 100 86 C146 90 154 134 146 176 C134 184 116 180 100 181 C82 182 68 184 56 178 Z"/>
  <path class="detail" d="M76 98 C72 132 74 164 80 178" opacity="0.45"/>
  <path class="detail" d="M124 98 C128 132 126 164 120 178" opacity="0.45"/>
  <path class="stitch" d="M62 150 C86 158 118 158 142 148"/>
  <path class="cheery-body" d="M60 114 C44 100 32 80 30 58 C34 50 44 54 46 66 C50 82 58 96 68 108 Z"/>
  <path class="cheery-body" d="M140 112 C158 96 172 78 176 56 C172 48 162 52 158 64 C154 82 146 96 134 108 Z"/>
  <g transform="rotate(-10 100 70)">
    <path class="cheery-accent" d="M70 74 C86 70 114 70 130 74 L126 78 C112 76 88 76 74 78 Z"/>
    <path class="cheery-accent" d="M82 40 C94 38 108 38 118 40 L120 74 C108 72 92 72 80 74 Z"/>
    <path fill="#1A1623" d="M82 64 C94 62 108 62 120 64 L120 70 C108 68 92 68 80 70 Z"/>
  </g>
  <circle fill="#D4A5A5" opacity="0.55" cx="64" cy="136" r="5"/>
  <circle fill="#D4A5A5" opacity="0.55" cx="138" cy="138" r="5"/>
  <circle class="cheery-eye" cx="84" cy="120" r="11"/>
  <circle class="cheery-eye" cx="118" cy="122" r="12"/>
  <circle class="cheery-pupil" cx="86" cy="122" r="6"/>
  <circle class="cheery-pupil" cx="120" cy="124" r="7"/>
  <circle fill="#F5F0E6" cx="82" cy="118" r="1.6"/>
  <circle fill="#F5F0E6" cx="117" cy="120" r="1.8"/>
  <path class="cheery-mouth" d="M80 144 L88 152 L96 144 L104 154 L112 144 L120 152 L122 146 L80 144 Z"/>
  <path fill="#F5F0E6" stroke="#1A1623" stroke-width="1" d="M102 152 L108 152 L105 159 Z"/>
</svg>
