<svg viewBox="0 0 200 200" xmlns="http://www.w3.org/2000/svg" role="img" aria-label="Drift the calm drape-creature, happy">
  <title>Drift</title>
  <defs>
    <style>
      .drift-body{fill:#F5F0E6;stroke:#1A1623;stroke-width:2.5;stroke-linejoin:round;stroke-linecap:round}
      .drift-eye{fill:none;stroke:#1A1623;stroke-width:2.5;stroke-linecap:round}
      .drift-mouth{fill:#1A1623;stroke:#1A1623;stroke-width:1.5;stroke-linejoin:round;stroke-linecap:round}
      .drift-accent{fill:#7AA2C4;stroke:#1A1623;stroke-width:1.5;stroke-linejoin:round;stroke-linecap:round}
      .hem{fill:#5E8A8C;stroke:#1A1623;stroke-width:1.5;stroke-linejoin:round;stroke-linecap:round;opacity:0.75}
      .detail{fill:none;stroke:#1A1623;stroke-width:1;stroke-linecap:round}
    </style>
  </defs>
  <path d="M74 176 C62 154 62 120 68 94 C74 62 86 34 104 30 C124 34 136 66 140 98 C144 128 142 156 134 176 Z" fill="#4A3A5C" opacity="0.35"/>
  <path class="drift-body" d="M70 170 C60 148 60 118 66 92 C72 60 82 28 100 26 C120 30 128 62 132 94 C136 122 134 152 128 170 Q122 168 118 174 Q112 166 108 174 Q100 166 96 174 Q90 166 86 174 Q80 166 76 174 Q72 168 70 170 Z"/>
  <path class="detail" d="M86 60 C82 90 82 130 88 160" opacity="0.4"/>
  <path class="detail" d="M114 60 C118 90 118 130 112 160" opacity="0.4"/>
  <path class="hem" d="M66 158 C78 164 92 164 100 162 C110 164 124 164 134 158 C132 166 128 172 128 170 Q122 168 118 174 Q112 166 108 174 Q100 166 96 174 Q90 166 86 174 Q80 166 76 174 Q72 168 70 170 Q68 164 66 158 Z"/>
  <path class="drift-accent" d="M60 118 C80 112 120 112 140 118 L140 128 C120 122 80 122 60 128 Z"/>
  <path class="drift-accent" d="M58 120 L50 112 L54 132 Z"/>
  <path class="drift-accent" d="M142 120 L150 112 L146 132 Z"/>
  <path class="drift-eye" d="M78 84 Q88 74 96 84"/>
  <path class="drift-eye" d="M104 84 Q112 74 122 84"/>
  <circle fill="#D4A5A5" opacity="0.55" cx="76" cy="96" r="4"/>
  <circle fill="#D4A5A5" opacity="0.55" cx="124" cy="96" r="4"/>
  <path class="drift-mouth" d="M90 100 C96 112 106 112 110 100 C104 104 96 104 90 100 Z"/>
  <path fill="#F5F0E6" stroke="#1A1623" stroke-width="1" d="M97 102 L103 102 L100 108 Z"/>
</svg>
