<svg viewBox="0 0 200 200" xmlns="http://www.w3.org/2000/svg" role="img" aria-label="Echo thinking">
  <title>Echo (thinking)</title>
  <defs>
    <style>
      .echo-body{fill:#B8A4C9;stroke:#1A1623;stroke-width:2.5;stroke-linecap:round;stroke-linejoin:round}
      .echo-shadow{fill:#4A3A5C;opacity:.35}
      .echo-horn{fill:#4A3A5C;stroke:#1A1623;stroke-width:1.5;stroke-linejoin:round}
      .echo-eye{fill:#F5F0E6;stroke:#1A1623;stroke-width:1.5}
      .echo-pupil{fill:#1A1623}
      .echo-spiral{fill:none;stroke:#1A1623;stroke-width:1.6;stroke-linecap:round}
      .echo-brow{fill:none;stroke:#1A1623;stroke-width:2;stroke-linecap:round}
      .echo-mouth{fill:none;stroke:#1A1623;stroke-width:1.8;stroke-linecap:round}
      .echo-accent{fill:#B8468A;stroke:#1A1623;stroke-width:1.5;stroke-linejoin:round}
      .echo-stitch{fill:none;stroke:#1A1623;stroke-width:1;stroke-dasharray:3 3;opacity:.55}
      .echo-dot{fill:#1A1623}
      .echo-sketch{fill:none;stroke:#4A3A5C;stroke-width:1.1;opacity:.45;stroke-linecap:round}
    </style>
  </defs>
  <path class="echo-shadow" d="M84 52Q103 40 122 52C140 84 152 140 146 180Q103 185 58 180C54 142 64 86 84 52Z"/>
  <path class="echo-horn" d="M74 54L58 40L80 66Z"/>
  <path class="echo-horn" d="M126 54L142 40L120 66Z"/>
  <path class="echo-body" d="M80 48Q100 36 120 48C138 82 148 138 144 176Q100 181 56 176C52 138 62 82 80 48Z"/>
  <path class="echo-sketch" d="M70 80Q64 130 74 170"/>
  <path class="echo-stitch" d="M100 50Q98 120 100 170"/>
  <path class="echo-body" d="M78 176Q74 186 84 186Q92 184 90 176Z"/>
  <path class="echo-body" d="M110 176Q108 186 118 186Q124 184 122 176Z"/>
  <path class="echo-accent" d="M108 130Q128 126 142 134Q152 146 146 156Q140 162 134 160Q144 152 140 144Q132 138 122 140Q114 140 108 136Z"/>
  <circle class="echo-dot" cx="76" cy="26" r="1.4"/>
  <circle class="echo-dot" cx="86" cy="18" r="1.6"/>
  <circle class="echo-dot" cx="96" cy="10" r="1.3"/>
  <circle class="echo-eye" cx="84" cy="92" r="11"/>
  <circle class="echo-pupil" cx="85" cy="94" r="6"/>
  <circle class="echo-eye" cx="116" cy="92" r="11"/>
  <path class="echo-spiral" d="M116 92q2-2 4 0t-3 5-7-3 4-9 10 3-2 11"/>
  <path class="echo-brow" d="M74 76Q84 72 94 76"/>
  <path class="echo-brow" d="M106 76Q116 72 126 76"/>
  <path class="echo-mouth" d="M94 126L108 124"/>
</svg>
