<svg filter="url(#burton-sketch)" viewBox="0 0 200 200" xmlns="http://www.w3.org/2000/svg" role="img" aria-label="Echo surprised">
  <title>Echo (surprised)</title>
  <defs>
    <filter id="burton-sketch" x="-20%" y="-20%" width="140%" height="140%">
      <!-- Hand-drawn wobbly displacement -->
      <feTurbulence type="fractalNoise" baseFrequency="0.04" numOctaves="3" result="noise" />
      <feDisplacementMap in="SourceGraphic" in2="noise" scale="3.5" xChannelSelector="R" yChannelSelector="G" result="wobbly" />
      
      <!-- Mute colors for a gothic palette -->
      <feColorMatrix in="wobbly" type="saturate" values="0.35" result="muted" />
      
      <!-- Boost contrast slightly -->
      <feComponentTransfer in="muted" result="final">
        <feFuncR type="linear" slope="1.1" intercept="-0.05" />
        <feFuncG type="linear" slope="1.1" intercept="-0.05" />
        <feFuncB type="linear" slope="1.1" intercept="-0.05" />
      </feComponentTransfer>
    </filter>

    <style>
      .echo-body{fill:#B8A4C9;stroke:#1A1623;stroke-width:2.5;stroke-linecap:round;stroke-linejoin:round}
      .echo-shadow{fill:#4A3A5C;opacity:.35}
      .echo-horn{fill:#4A3A5C;stroke:#1A1623;stroke-width:1.5;stroke-linejoin:round}
      .echo-eye{fill:#F5F0E6;stroke:#1A1623;stroke-width:1.5}
      .echo-pupil{fill:#1A1623}
      .echo-mouth{fill:#1A1623}
      .echo-accent{fill:#B8468A;stroke:#1A1623;stroke-width:1.5;stroke-linejoin:round}
      .echo-stitch{fill:none;stroke:#1A1623;stroke-width:1;stroke-dasharray:3 3;opacity:.55}
      .echo-spike{stroke:#1A1623;stroke-width:2;stroke-linecap:round}
      .echo-sketch{fill:none;stroke:#4A3A5C;stroke-width:1.1;opacity:.45;stroke-linecap:round}
      .echo-bead{fill:#F5F0E6;stroke:#1A1623;stroke-width:1}
    </style>
  </defs>
  <path class="echo-shadow" d="M84 52Q103 40 122 52C140 84 152 140 146 180Q103 185 58 180C54 142 64 86 84 52Z"/>
  <path class="echo-horn" d="M74 54L58 40L80 66Z"/>
  <path class="echo-horn" d="M126 54L142 40L120 66Z"/>
  <path class="echo-body" d="M80 48Q100 36 120 48C138 82 148 138 144 176Q100 181 56 176C52 138 62 82 80 48Z"/>
  <path class="echo-sketch" d="M70 80Q64 130 74 170"/>
  <path class="echo-stitch" d="M100 50Q98 120 100 170"/>
  <path class="echo-body" d="M78 176Q74 186 84 186Q92 184 90 176Z"/>
  <path class="echo-body" d="M110 176Q108 186 118 186Q124 184 122 176Z"/>
  <path class="echo-accent" d="M108 128Q136 116 156 128Q174 148 164 168Q152 178 142 172Q156 164 154 152Q146 136 128 138Q116 138 108 134Z"/>
  <path class="echo-spike" d="M66 38L58 28M88 28L84 14M110 28L114 14"/>
  <path class="echo-bead" d="M132 60Q136 68 140 60Q140 54 136 54Q132 54 132 60Z"/>
  <circle cx="82" cy="96.5" r="18.5" fill="#1A1623" opacity="0.35" />
  <circle class="echo-eye" cx="82" cy="94" r="14"/>
  <circle cx="118" cy="96.5" r="18.5" fill="#1A1623" opacity="0.35" />
  <circle class="echo-eye" cx="118" cy="94" r="14"/>
  <circle class="echo-pupil" cx="82" cy="94" r="2.6"/>
  <circle class="echo-pupil" cx="118" cy="94" r="2.6"/>
  <ellipse class="echo-mouth" cx="100" cy="128" rx="2.4" ry="3.2"/>
</svg>
