<svg viewBox="0 0 200 200" xmlns="http://www.w3.org/2000/svg" role="img" aria-label="Echo the chatty bell">
  <title>Echo</title>
  <desc>Bell creature with speech ribbon. Palette: bone #F5F0E6 ink #1A1623 dusk #4A3A5C lavender #B8A4C9 blush #D4A5A5 magenta #B8468A</desc>
  <defs>
    <style>
      .echo-body{fill:#B8A4C9;stroke:#1A1623;stroke-width:2.5;stroke-linecap:round;stroke-linejoin:round}
      .echo-shadow{fill:#4A3A5C;opacity:.35}
      .echo-horn{fill:#4A3A5C;stroke:#1A1623;stroke-width:1.5;stroke-linejoin:round}
      .echo-eye{fill:#F5F0E6;stroke:#1A1623;stroke-width:1.5}
      .echo-pupil{fill:#1A1623}
      .echo-hl{fill:#F5F0E6}
      .echo-mouth{fill:none;stroke:#1A1623;stroke-width:1.8;stroke-linecap:round}
      .echo-accent{fill:#B8468A;stroke:#1A1623;stroke-width:1.5;stroke-linejoin:round}
      .echo-stitch{fill:none;stroke:#1A1623;stroke-width:1;stroke-dasharray:3 3;opacity:.55}
      .echo-blush{fill:#D4A5A5;opacity:.7}
      .echo-sketch{fill:none;stroke:#4A3A5C;stroke-width:1.1;opacity:.45;stroke-linecap:round}
    </style>
  </defs>
  <path class="echo-shadow" d="M84 52Q103 40 122 52C140 84 152 140 146 180Q103 185 58 180C54 142 64 86 84 52Z"/>
  <path class="echo-horn" d="M74 54L58 40L80 66Z"/>
  <path class="echo-horn" d="M126 54L142 40L120 66Z"/>
  <path class="echo-body" d="M80 48Q100 36 120 48C138 82 148 138 144 176Q100 181 56 176C52 138 62 82 80 48Z"/>
  <path class="echo-sketch" d="M70 80Q64 130 74 170"/>
  <path class="echo-stitch" d="M100 50Q98 120 100 170"/>
  <path class="echo-body" d="M78 176Q74 186 84 186Q92 184 90 176Z"/>
  <path class="echo-body" d="M110 176Q108 186 118 186Q124 184 122 176Z"/>
  <path class="echo-accent" d="M108 130Q132 122 152 132Q168 148 158 164Q148 174 138 170Q152 162 150 152Q142 140 126 142Q116 142 108 136Z"/>
  <path fill="none" stroke="#1A1623" stroke-width="1" opacity=".5" d="M128 140Q140 148 146 158"/>
  <ellipse class="echo-blush" cx="72" cy="108" rx="5" ry="2.6"/>
  <ellipse class="echo-blush" cx="128" cy="108" rx="5" ry="2.6"/>
  <circle class="echo-eye" cx="84" cy="92" r="11"/>
  <circle class="echo-eye" cx="116" cy="92" r="11"/>
  <circle class="echo-pupil" cx="86" cy="94" r="6"/>
  <circle class="echo-pupil" cx="118" cy="94" r="6"/>
  <circle class="echo-hl" cx="82" cy="89" r="1.8"/>
  <circle class="echo-hl" cx="114" cy="89" r="1.8"/>
  <path class="echo-mouth" d="M93 126Q100 132 107 126"/>
</svg>
