<svg viewBox="0 0 200 200" xmlns="http://www.w3.org/2000/svg" role="img" aria-label="Echo happy">
  <title>Echo (happy)</title>
  <defs>
    <style>
      .echo-body{fill:#B8A4C9;stroke:#1A1623;stroke-width:2.5;stroke-linecap:round;stroke-linejoin:round}
      .echo-shadow{fill:#4A3A5C;opacity:.35}
      .echo-horn{fill:#4A3A5C;stroke:#1A1623;stroke-width:1.5;stroke-linejoin:round}
      .echo-eye{fill:none;stroke:#1A1623;stroke-width:3.2;stroke-linecap:round}
      .echo-mouth{fill:#1A1623;stroke:#1A1623;stroke-width:1.5;stroke-linejoin:round}
      .echo-tooth{fill:#F5F0E6}
      .echo-accent{fill:#B8468A;stroke:#1A1623;stroke-width:1.5;stroke-linejoin:round}
      .echo-stitch{fill:none;stroke:#1A1623;stroke-width:1;stroke-dasharray:3 3;opacity:.55}
      .echo-blush{fill:#D4A5A5;opacity:.8}
      .echo-sketch{fill:none;stroke:#4A3A5C;stroke-width:1.1;opacity:.45;stroke-linecap:round}
    </style>
  </defs>
  <path class="echo-shadow" d="M84 52Q103 40 122 52C140 84 152 140 146 180Q103 185 58 180C54 142 64 86 84 52Z"/>
  <path class="echo-horn" d="M74 54L58 40L80 66Z"/>
  <path class="echo-horn" d="M126 54L142 40L120 66Z"/>
  <path class="echo-body" d="M80 48Q100 36 120 48C138 82 148 138 144 176Q100 181 56 176C52 138 62 82 80 48Z"/>
  <path class="echo-sketch" d="M70 80Q64 130 74 170"/>
  <path class="echo-stitch" d="M100 50Q98 120 100 170"/>
  <path class="echo-body" d="M78 176Q74 186 84 186Q92 184 90 176Z"/>
  <path class="echo-body" d="M110 176Q108 186 118 186Q124 184 122 176Z"/>
  <path class="echo-accent" d="M108 128Q132 118 152 128Q170 146 160 164Q150 174 140 170Q154 162 152 152Q144 138 126 140Q116 140 108 134Z"/>
  <path fill="none" stroke="#1A1623" stroke-width="1" opacity=".5" d="M128 138Q140 146 146 158"/>
  <ellipse class="echo-blush" cx="72" cy="104" rx="5" ry="2.6"/>
  <ellipse class="echo-blush" cx="128" cy="104" rx="5" ry="2.6"/>
  <path class="echo-eye" d="M74 94Q84 82 94 94"/>
  <path class="echo-eye" d="M106 94Q116 82 126 94"/>
  <path class="echo-mouth" d="M88 122Q100 140 112 122Q100 132 88 122Z"/>
  <path class="echo-tooth" d="M98 126 103 126 100.5 131Z"/>
</svg>
