<svg viewBox="0 0 200 200" xmlns="http://www.w3.org/2000/svg" role="img" aria-label="Glimmer the moth-lantern guide">
  <title>Glimmer</title>
  <defs>
    <style>
      /* bone #F5F0E6 | ink #1A1623 | dusk #4A3A5C | teal-fog #5E8A8C | lavender #B8A4C9 | blush #D4A5A5 | pop gold #E8B53C */
      .glimmer-body{fill:#4A3A5C;stroke:#1A1623;stroke-width:2.5;stroke-linecap:round;stroke-linejoin:round}
      .lantern{fill:#F5F0E6;stroke:#1A1623;stroke-width:2.5;stroke-linecap:round;stroke-linejoin:round}
      .glimmer-eye{fill:#F5F0E6;stroke:#1A1623;stroke-width:1.5}
      .glimmer-pupil{fill:#1A1623}
      .glimmer-mouth{fill:none;stroke:#1A1623;stroke-width:1.5;stroke-linecap:round}
      .glimmer-accent{fill:#E8B53C;stroke:#1A1623;stroke-width:1;stroke-linejoin:round}
      .shadow{fill:#4A3A5C;opacity:.35}
      .thin{fill:none;stroke:#1A1623;stroke-width:1;stroke-linecap:round}
      .thread{fill:none;stroke:#1A1623;stroke-width:1;stroke-linecap:round;opacity:.9}
    </style>
  </defs>
  <!-- back-shadow -->
  <path class="shadow" d="M77 44 L131 44 L131 116 L117 128 Q129 152 125 184 Q102 188 82 184 Q79 152 91 128 L77 116 Z"/>
  <!-- body drape -->
  <path class="glimmer-body" d="M88 122 Q73 148 80 180 Q100 186 121 180 Q127 148 112 122 Z"/>
  <!-- belly sketch line -->
  <path class="thin" opacity=".4" d="M92 140 Q100 172 112 142"/>
  <!-- arms wispy -->
  <path class="thin" stroke-width="1.3" d="M86 134 Q68 148 64 172"/>
  <path class="thin" stroke-width="1.3" d="M114 134 Q134 146 136 174"/>
  <!-- neck -->
  <path class="glimmer-body" d="M94 110 L106 110 L105 124 L95 124 Z"/>
  <!-- lantern handle -->
  <path class="thin" stroke-width="2" d="M94 28 Q100 17 106 28"/>
  <!-- lantern top cap -->
  <path class="lantern" d="M87 38 L93 27 L107 27 L113 38 Z"/>
  <!-- lantern chamber -->
  <path class="lantern" d="M73 42 Q71 40 78 40 L122 40 Q129 40 127 44 L127 108 Q129 114 121 114 L79 114 Q71 114 73 108 Z"/>
  <!-- frame bars -->
  <path class="thin" d="M81 46 L81 108"/>
  <path class="thin" d="M119 46 L119 108"/>
  <!-- flame inside -->
  <path class="glimmer-accent" opacity=".9" d="M100 50 C91 58 93 68 100 68 C107 68 109 58 100 50 Z"/>
  <path class="glimmer-accent" opacity=".3" d="M100 44 C86 56 88 76 100 76 C112 76 114 56 100 44 Z"/>
  <!-- antenna -->
  <path class="thin" stroke-width="1.5" d="M100 27 Q115 9 132 19 Q150 32 147 52"/>
  <circle cx="147" cy="54" r="2.6" fill="#1A1623"/>
  <!-- FACE default: saucer eyes -->
  <circle class="glimmer-eye" cx="90" cy="86" r="7"/>
  <circle class="glimmer-eye" cx="110" cy="86" r="7"/>
  <circle class="glimmer-pupil" cx="90" cy="87" r="4.5"/>
  <circle class="glimmer-pupil" cx="110" cy="87" r="4.5"/>
  <circle cx="88.2" cy="84" r="1.3" fill="#F5F0E6"/>
  <circle cx="108.2" cy="84" r="1.3" fill="#F5F0E6"/>
  <!-- cross-stitch X beside left button eye (signature) -->
  <path class="thread" d="M82 80 L86 84 M86 80 L82 84"/>
  <!-- calm mouth -->
  <path class="glimmer-mouth" d="M94 102 Q100 106 106 102"/>
  <!-- tiny blush -->
  <circle cx="84" cy="96" r="2" fill="#D4A5A5" opacity=".5"/>
  <circle cx="116" cy="96" r="2" fill="#D4A5A5" opacity=".5"/>
</svg>
