<svg viewBox="0 0 200 200" xmlns="http://www.w3.org/2000/svg" role="img" aria-label="Glimmer the sparkly creature">
  <title>Glimmer</title>
  <defs>
    <style>
      .glimmer-body { fill: #FFD700; stroke: #DAA520; stroke-width: 2; }
      .glimmer-eye { fill: #2C3E50; }
      .glimmer-eye-shine { fill: #FFFFFF; }
      .glimmer-mouth { fill: none; stroke: #8B4513; stroke-width: 2; }
    </style>
  </defs>
  
  <!-- Main body -->
  <ellipse class="glimmer-body" cx="100" cy="110" rx="55" ry="65"/>
  
  <!-- Left ear -->
  <ellipse class="glimmer-body" cx="70" cy="55" rx="18" ry="32"/>
  <ellipse class="glimmer-eye" cx="70" cy="50" rx="8" ry="10"/>
  
  <!-- Right ear -->
  <ellipse class="glimmer-body" cx="130" cy="55" rx="18" ry="32"/>
  <ellipse class="glimmer-eye" cx="130" cy="50" rx="8" ry="10"/>
  
  <!-- Left eye -->
  <circle class="glimmer-eye" cx="80" cy="90" r="12"/>
  <circle class="glimmer-eye-shine" cx="82" cy="88" r="5"/>
  
  <!-- Right eye -->
  <circle class="glimmer-eye" cx="120" cy="90" r="12"/>
  <circle class="glimmer-eye-shine" cx="122" cy="88" r="5"/>
  
  <!-- Sparkle spots on body -->
  <circle fill="#FFE4B5" cx="75" cy="115" r="4"/>
  <circle fill="#FFE4B5" cx="125" cy="120" r="4"/>
  <circle fill="#FFE4B5" cx="100" cy="140" r="3"/>
  
  <!-- Happy mouth -->
  <path class="glimmer-mouth" d="M 95 130 Q 100 140 105 130"/>
  
  <!-- Arms -->
  <ellipse class="glimmer-body" cx="55" cy="120" rx="12" ry="35"/>
  <ellipse class="glimmer-body" cx="145" cy="120" rx="12" ry="35"/>
  
  <!-- Feet -->
  <ellipse class="glimmer-body" cx="85" cy="175" rx="15" ry="12"/>
  <ellipse class="glimmer-body" cx="115" cy="175" rx="15" ry="12"/>
</svg>
