<svg viewBox="0 0 200 200" xmlns="http://www.w3.org/2000/svg" role="img" aria-label="Guardian surprised">
  <title>Guardian (surprised)</title>
  <defs>
    <style>
      .guardian-body{fill:#1A1623;stroke:#1A1623;stroke-width:2.5;stroke-linecap:round;stroke-linejoin:round}
      .guardian-shadow{fill:#4A3A5C;opacity:.35}
      .guardian-hood{fill:#2A1F36}
      .guardian-eye{fill:#F5F0E6;stroke:#1A1623;stroke-width:1.5}
      .guardian-pupil{fill:#1A1623}
      .guardian-mouth{fill:#1A1623}
      .guardian-accent{fill:#7EA05C;stroke:#1A1623;stroke-width:1.2}
      .guardian-stitch{fill:none;stroke:#1A1623;stroke-width:1;stroke-dasharray:3 3;opacity:.6}
      .guardian-sketch{fill:none;stroke:#4A3A5C;stroke-width:1.2;opacity:.5;stroke-linecap:round}
      .guardian-spike{stroke:#1A1623;stroke-width:2;stroke-linecap:round}
    </style>
  </defs>
  <path class="guardian-shadow" d="M103 28C80 32 65 58 67 82 50 112 46 158 62 186L90 183Q99 178 107 184 117 180 125 185L152 188C164 152 158 110 144 82 146 58 130 32 103 28Z"/>
  <path class="guardian-body" d="M100 22C75 28 58 55 62 80 44 108 38 155 52 183Q70 179 84 182 92 173 100 180 109 172 118 180 132 178 150 184C162 152 158 108 140 80 144 55 128 26 100 22Z"/>
  <path class="guardian-hood" d="M78 54Q100 42 124 58 126 92 100 96 76 90 78 54Z"/>
  <path class="guardian-sketch" d="M68 96Q62 136 72 178"/>
  <path class="guardian-sketch" d="M134 96Q146 138 136 180"/>
  <path class="guardian-stitch" d="M56 180Q100 188 148 184"/>
  <path class="guardian-spike" d="M82 14L78 4M100 10L100 0M118 14L122 4"/>
  <circle class="guardian-accent" cx="100" cy="104" r="4.2"/>
  <path stroke="#1A1623" stroke-width=".9" stroke-linecap="round" d="M98.2 102.2 102 106M102 102.2 98.2 106"/>
  <circle class="guardian-eye" cx="100" cy="74" r="16"/>
  <circle class="guardian-pupil" cx="100" cy="74" r="3"/>
  <ellipse class="guardian-mouth" cx="100" cy="92" rx="2.4" ry="3.2"/>
</svg>
