<svg viewBox="0 0 200 200" xmlns="http://www.w3.org/2000/svg" role="img" aria-label="Isla the rag-doll boss, surprised">
  <title>Isla (surprised)</title>
  <defs>
    <style>
      .isla-body{fill:#4A3A5C;stroke:#1A1623;stroke-width:2.5;stroke-linecap:round;stroke-linejoin:round}
      .head{fill:#F5F0E6;stroke:#1A1623;stroke-width:2.5;stroke-linejoin:round}
      .isla-eye{fill:#F5F0E6;stroke:#1A1623;stroke-width:1.5}
      .isla-pupil{fill:#1A1623}
      .isla-mouth{fill:#1A1623;stroke:#1A1623;stroke-width:1}
      .isla-accent{fill:#B34A5E;stroke:#1A1623;stroke-width:1.5;stroke-linejoin:round}
      .shadow{fill:#4A3A5C;opacity:.35}
      .thin{fill:none;stroke:#1A1623;stroke-width:1;stroke-linecap:round}
      .seam{fill:none;stroke:#1A1623;stroke-width:1.1;stroke-dasharray:2.5 2.5;stroke-linecap:round}
      .patch1{fill:#D4A5A5;stroke:#1A1623;stroke-width:1.1;stroke-dasharray:2.3 2.3;stroke-linejoin:round}
      .patch2{fill:#B8A4C9;stroke:#1A1623;stroke-width:1.1;stroke-dasharray:2.3 2.3;stroke-linejoin:round}
    </style>
  </defs>
  <path class="shadow" d="M82 102 Q68 150 76 184 L130 184 Q136 150 124 102 Z"/>
  <path class="isla-body" d="M80 100 Q66 150 74 182 L126 182 Q134 150 120 100 Z"/>
  <path class="thin" d="M76 176 Q82 182 88 176 Q94 182 100 176 Q106 182 112 176 Q118 182 124 176"/>
  <path class="patch1" d="M84 118 L96 116 L94 131 L82 132 Z"/>
  <path class="patch2" d="M108 148 L122 146 L120 162 L106 161 Z"/>
  <!-- arms raised slightly -->
  <path class="thin" stroke-width="1.5" d="M82 104 Q64 122 72 148"/>
  <path class="thin" stroke-width="1.5" d="M118 104 Q136 122 128 148"/>
  <circle cx="72" cy="150" r="2.4" fill="#F5F0E6" stroke="#1A1623" stroke-width="1"/>
  <circle cx="128" cy="150" r="2.4" fill="#F5F0E6" stroke="#1A1623" stroke-width="1"/>
  <path class="isla-body" d="M94 98 L106 98 L105 78 L95 78 Z"/>
  <path class="seam" d="M94 82 L106 82"/>
  <g transform="rotate(-6 100 58)">
    <path class="head" d="M82 54 Q80 34 100 32 Q122 34 118 56 Q116 76 100 78 Q84 76 82 54 Z"/>
    <!-- huge sclera tiny pupils -->
    <circle class="isla-eye" cx="91" cy="54" r="8.5"/>
    <circle class="isla-eye" cx="109" cy="54" r="8.5"/>
    <circle class="isla-pupil" cx="91" cy="55" r="1.7"/>
    <circle class="isla-pupil" cx="109" cy="55" r="1.7"/>
    <!-- o mouth -->
    <ellipse class="isla-mouth" cx="100" cy="70" rx="2.2" ry="3"/>
    <!-- sweat bead on temple -->
    <path d="M122 46 Q119 52 122 56 Q125 52 122 46 Z" fill="#F5F0E6" stroke="#1A1623" stroke-width="1"/>
  </g>
  <g transform="rotate(-8 100 30)">
    <path class="isla-accent" d="M84 38 L90 20 L97 34 L100 16 L103 34 L110 20 L116 38 Z"/>
    <path class="thin" d="M90 34 L110 34" opacity=".6"/>
  </g>
</svg>
