<svg viewBox="0 0 200 200" xmlns="http://www.w3.org/2000/svg" role="img" aria-label="Pixel the patchwork parent, happy">
  <title>Pixel (happy)</title>
  <defs>
    <style>
      .pixel-body{fill:#4A3A5C;stroke:#1A1623;stroke-width:2.5;stroke-linecap:round;stroke-linejoin:round}
      .muzzle{fill:#F5F0E6;stroke:#1A1623;stroke-width:1.5;stroke-linejoin:round}
      .pixel-eye{fill:none;stroke:#1A1623;stroke-width:2.5;stroke-linecap:round}
      .pixel-mouth{fill:#1A1623;stroke:#1A1623;stroke-width:1.2;stroke-linejoin:round}
      .pixel-accent{fill:#4A7C7E;stroke:#1A1623;stroke-width:1.5;stroke-linejoin:round}
      .shadow{fill:#4A3A5C;opacity:.35}
      .thin{fill:none;stroke:#1A1623;stroke-width:1;stroke-linecap:round}
      .seam{fill:none;stroke:#1A1623;stroke-width:1.3;stroke-dasharray:3 3;stroke-linecap:round}
      .patch{fill:#B8A4C9;stroke:#1A1623;stroke-width:1.2;stroke-dasharray:2.5 2.5;stroke-linejoin:round}
    </style>
  </defs>
  <path class="shadow" d="M56 62 L148 62 L152 184 L50 184 Z"/>
  <path class="pixel-body" d="M60 56 L73 28 L86 56 Z"/>
  <path class="thin" d="M66 48 L78 44"/>
  <path class="pixel-body" d="M114 56 Q128 26 142 56 Z"/>
  <path class="thin" d="M124 42 Q128 38 132 42"/>
  <path class="pixel-body" d="M52 62 Q50 56 58 56 L142 56 Q150 56 148 62 L150 174 Q152 182 144 182 L56 182 Q48 182 50 174 Z"/>
  <path class="pixel-body" d="M50 102 Q34 118 44 144 Q56 148 56 120 Z"/>
  <path class="pixel-body" d="M150 104 Q168 120 156 146 Q144 148 144 122 Z"/>
  <path class="seam" d="M100 60 L100 182"/>
  <path class="thin" d="M96 90 L104 90 M96 130 L104 130 M96 160 L104 160"/>
  <path class="patch" d="M112 140 L136 142 L134 164 L110 160 Z"/>
  <path class="pixel-accent" d="M82 76 L96 84 L82 92 Z"/>
  <path class="pixel-accent" d="M118 76 L104 84 L118 92 Z"/>
  <path class="pixel-accent" d="M96 80 L104 80 L104 88 L96 88 Z"/>
  <path class="muzzle" d="M80 116 Q78 112 86 110 L114 110 Q122 112 120 116 L118 132 Q100 136 82 132 Z"/>
  <path d="M96 116 L104 116 L100 122 Z" fill="#1A1623"/>
  <!-- crescent happy eyes -->
  <path class="pixel-eye" d="M75 100 Q82 90 89 100"/>
  <path class="pixel-eye" d="M111 100 Q118 90 125 100"/>
  <!-- open grin with tooth -->
  <path class="pixel-mouth" d="M90 124 Q100 138 110 124 Q100 130 90 124 Z"/>
  <path d="M98 124 L102 124 L100 129 Z" fill="#F5F0E6" stroke="#1A1623" stroke-width="0.8"/>
  <circle cx="70" cy="114" r="3.3" fill="#D4A5A5" opacity=".65"/>
  <circle cx="130" cy="114" r="3.3" fill="#D4A5A5" opacity=".65"/>
</svg>
