<svg viewBox="0 0 200 200" xmlns="http://www.w3.org/2000/svg" role="img" aria-label="Star happy">
  <title>Star (happy)</title>
  <defs>
    <style>
      .star-body{fill:#E8B53C;stroke:#1A1623;stroke-width:2.5;stroke-linecap:round;stroke-linejoin:round}
      .star-shadow{fill:#4A3A5C;opacity:.35}
      .star-seam{fill:none;stroke:#1A1623;stroke-width:1;stroke-dasharray:3 3;opacity:.75}
      .star-eye{fill:none;stroke:#1A1623;stroke-width:3;stroke-linecap:round}
      .star-mouth{fill:#1A1623;stroke:#1A1623;stroke-width:1.5;stroke-linejoin:round}
      .star-tooth{fill:#F5F0E6}
      .star-leg{fill:none;stroke:#1A1623;stroke-width:2;stroke-linecap:round}
      .star-foot{fill:#F5F0E6;stroke:#1A1623;stroke-width:1.2;stroke-linejoin:round}
      .star-blush{fill:#D4A5A5;opacity:.75}
    </style>
  </defs>
  <path class="star-shadow" d="M103 36Q112 62 119 81Q143 78 167 83Q147 100 130 117Q138 142 143 162Q121 150 103 132Q85 152 63 162Q69 138 76 117Q59 100 39 83Q63 78 87 81Q95 60 103 36Z"/>
  <path class="star-body" d="M100 32Q110 58 116 77Q140 74 164 79Q144 96 127 113Q135 138 140 158Q118 146 100 128Q82 148 60 158Q66 134 73 113Q56 96 36 79Q60 74 84 77Q92 56 100 32Z"/>
  <path class="star-seam" d="M100 34L140 156L38 80L162 80L60 156Z"/>
  <path class="star-leg" d="M94 128L88 182"/>
  <path class="star-leg" d="M106 128L112 182"/>
  <path class="star-foot" d="M80 182Q88 180 94 183Q92 189 84 189Z"/>
  <path class="star-foot" d="M106 183Q112 180 120 182Q116 189 108 189Z"/>
  <ellipse class="star-blush" cx="78" cy="108" rx="4" ry="2"/>
  <ellipse class="star-blush" cx="122" cy="108" rx="4" ry="2"/>
  <path class="star-eye" d="M80 102Q90 92 98 102"/>
  <path class="star-eye" d="M102 102Q112 92 120 102"/>
  <path class="star-mouth" d="M90 112Q100 124 110 112Q100 120 90 112Z"/>
  <path class="star-tooth" d="M98 115 102.5 115 100.5 119Z"/>
</svg>
