<svg viewBox="0 0 200 200" xmlns="http://www.w3.org/2000/svg" role="img" aria-label="Wave the friendly sock creature">
  <title>Wave</title>
  <!-- palette: bone#F5F0E6 ink#1A1623 dusk#4A3A5C teal-fog#5E8A8C lavender#B8A4C9 blush#D4A5A5 -->
  <defs><style>.wave-body { fill:#5E8A8C; stroke:#1A1623; stroke-width:2.5;
               stroke-linejoin:round; stroke-linecap:round; }
.wave-eye { fill:#F5F0E6; stroke:#1A1623; stroke-width:1.5; }
.wave-pupil { fill:#1A1623; }
.wave-mouth { fill:none; stroke:#1A1623; stroke-width:2;
                stroke-linecap:round; stroke-linejoin:round; }
.wave-accent { stroke:#1A1623; stroke-width:1.5;
                 stroke-linecap:round; stroke-linejoin:round; }
.ink { stroke:#1A1623; fill:none; stroke-linecap:round;
        stroke-linejoin:round; }
.shadow { fill:#4A3A5C; opacity:0.35; }
.sketch { stroke:#1A1623; fill:none; opacity:0.4; stroke-width:1;
           stroke-linecap:round; }
.hi { fill:#F5F0E6; }

.wave-body { fill:#5E8A8C; }
.bow { fill:#4A74B8; stroke:#1A1623; stroke-width:1.5;
        stroke-linejoin:round; }</style></defs>
  <path class="shadow" d="M74,60 Q70,50 84,46 Q104,42 122,48 Q134,54 130,62 L136,172 Q104,184 72,172 Z"/>
  <path class="wave-body" d="M72,56 Q66,48 80,42 Q100,38 120,44 Q132,50 128,58 L132,170 Q100,180 68,170 Z"/>
  <path class="ink" stroke-width="1.2" stroke-dasharray="3 3" fill="none" d="M100,62 L100,164"/>
  <g class="ink" stroke-width="1"><path d="M96,80 L104,80"/><path d="M97,104 L103,104"/><path d="M96,128 L104,128"/><path d="M97,150 L103,150"/></g>
  <path class="wave-body" d="M74,72 Q46,54 34,34 Q26,28 28,40 Q34,54 52,72 Q62,86 70,92 Z"/>
  <path class="ink" stroke-width="1.4" fill="none" d="M30,34 q-4,-4 -2,-8 M34,36 q-3,-5 0,-9 M40,36 q-2,-4 1,-8"/>
  <path class="wave-body" d="M128,92 Q144,108 142,124 Q134,128 130,118 Q124,106 122,96 Z"/>
  <path class="wave-body" d="M76,170 Q70,180 84,178 Q90,174 86,170 Z"/>
  <path class="wave-body" d="M124,170 Q130,180 116,178 Q110,174 114,170 Z"/>
  <path class="bow" d="M82,60 L72,52 L72,68 Z"/>
  <path class="bow" d="M118,60 L128,52 L128,68 Z"/>
  <path class="bow" d="M92,56 Q100,52 108,56 L108,64 Q100,68 92,64 Z"/>
  <circle cx="100" cy="60" r="1.6" fill="#1A1623"/>
  <circle class="wave-eye" cx="86" cy="78" r="9"/>
  <circle class="wave-pupil" cx="86" cy="78.6" r="6"/>
  <circle class="hi" cx="84.2" cy="75.8" r="1.4"/>
  <circle class="wave-eye" cx="114" cy="78" r="9"/>
  <circle class="wave-pupil" cx="114" cy="78.6" r="6"/>
  <circle class="hi" cx="112.2" cy="75.8" r="1.4"/>
  <path class="wave-mouth" d="M93.0,96 Q100,101 107.0,96"/>
  <circle cx="76" cy="90" r="3.5" fill="#D4A5A5" opacity="0.6"/>
  <circle cx="124" cy="90" r="3.5" fill="#D4A5A5" opacity="0.6"/>
</svg>
