<svg viewBox="0 0 200 200" xmlns="http://www.w3.org/2000/svg" role="img" aria-label="Thinking Wobbly">
  <title>Wobbly - Thinking</title>
  <defs>
    <style>
      .wobbly-body { fill: #9B59B6; stroke: #6C3483; stroke-width: 2; }
      .wobbly-eye { fill: #FFFFFF; stroke: #000000; stroke-width: 1.5; }
      .wobbly-pupil { fill: #000000; }
      .wobbly-mouth { fill: none; stroke: #000000; stroke-width: 2; }
      .thinking-dot { fill: #000000; }
    </style>
  </defs>
  
  <!-- Wobbly main body -->
  <ellipse class="wobbly-body" cx="100" cy="115" rx="48" ry="60"/>
  
  <!-- Wobbly bumps -->
  <circle class="wobbly-body" cx="70" cy="75" r="12"/>
  <circle class="wobbly-body" cx="130" cy="75" r="12"/>
  <circle class="wobbly-body" cx="60" cy="140" r="10"/>
  <circle class="wobbly-body" cx="140" cy="145" r="10"/>
  
  <!-- Left eye thinking -->
  <circle class="wobbly-eye" cx="85" cy="105" r="11"/>
  <circle class="wobbly-pupil" cx="85" cy="100" r="5"/>
  
  <!-- Right eye thinking -->
  <circle class="wobbly-eye" cx="115" cy="105" r="11"/>
  <circle class="wobbly-pupil" cx="115" cy="100" r="5"/>
  
  <!-- Thinking mouth -->
  <path class="wobbly-mouth" d="M 95 135 Q 100 130 105 135"/>
  
  <!-- Thought bubbles -->
  <circle class="thinking-dot" cx="140" cy="55" r="5"/>
  <circle class="thinking-dot" cx="160" cy="70" r="3"/>
  
  <!-- Left arm thinking -->
  <path class="wobbly-body" d="M 55 115 Q 40 110 35 130 Q 38 150 50 155" fill="#9B59B6" stroke="#6C3483" stroke-width="2"/>
  <circle class="wobbly-body" cx="30" cy="140" r="9"/>
  
  <!-- Right arm -->
  <path class="wobbly-body" d="M 145 115 Q 160 110 165 130 Q 162 150 150 155" fill="#9B59B6" stroke="#6C3483" stroke-width="2"/>
  <circle class="wobbly-body" cx="170" cy="140" r="9"/>
  
  <!-- Feet -->
  <ellipse class="wobbly-body" cx="80" cy="175" rx="16" ry="12"/>
  <ellipse class="wobbly-body" cx="120" cy="175" rx="16" ry="12"/>
</svg>
