<svg viewBox="0 0 200 200" xmlns="http://www.w3.org/2000/svg" role="img" aria-label="Zing the energetic creature">
  <title>Zing</title>
  <defs>
    <style>
      .zing-body { fill: #FF4500; stroke: #DC143C; stroke-width: 2; }
      .zing-eye { fill: #FFFFFF; stroke: #000000; stroke-width: 1.5; }
      .zing-pupil { fill: #000000; }
      .zing-mouth { fill: none; stroke: #000000; stroke-width: 2; }
      .zing-stripe { fill: none; stroke: #FFD700; stroke-width: 2; }
    </style>
  </defs>
  
  <!-- Energetic spiky body -->
  <circle class="zing-body" cx="100" cy="110" r="50"/>
  
  <!-- Spikes all around -->
  <polygon class="zing-body" points="100,55 105,35 95,55"/>
  <polygon class="zing-body" points="145,85 165,80 145,95"/>
  <polygon class="zing-body" points="145,135 165,140 145,150"/>
  <polygon class="zing-body" points="55,135 35,140 55,150"/>
  <polygon class="zing-body" points="55,85 35,80 55,95"/>
  
  <!-- Left eye energetic -->
  <circle class="zing-eye" cx="85" cy="100" r="11"/>
  <circle class="zing-pupil" cx="85" cy="100" r="6"/>
  
  <!-- Right eye energetic -->
  <circle class="zing-eye" cx="115" cy="100" r="11"/>
  <circle class="zing-pupil" cx="115" cy="100" r="6"/>
  
  <!-- Wide smile -->
  <path class="zing-mouth" d="M 87 128 Q 100 140 113 128"/>
  
  <!-- Energy stripes -->
  <line class="zing-stripe" x1="70" y1="110" x2="60" y2="110"/>
  <line class="zing-stripe" x1="130" y1="110" x2="140" y2="110"/>
  
  <!-- Left arm (bent in action pose) -->
  <ellipse class="zing-body" cx="45" cy="115" rx="13" ry="38" transform="rotate(-20 45 115)"/>
  <circle class="zing-body" cx="33" cy="145" r="9"/>
  
  <!-- Right arm (bent in action pose) -->
  <ellipse class="zing-body" cx="155" cy="115" rx="13" ry="38" transform="rotate(20 155 115)"/>
  <circle class="zing-body" cx="167" cy="145" r="9"/>
  
  <!-- Feet -->
  <ellipse class="zing-body" cx="80" cy="165" rx="16" ry="11"/>
  <ellipse class="zing-body" cx="120" cy="165" rx="16" ry="11"/>
</svg>
