<svg viewBox="0 0 200 200" xmlns="http://www.w3.org/2000/svg" role="img" aria-label="Zing the notification bat, thinking">
  <title>Zing</title>
  <defs>
    <style>
      .zing-body{fill:#1A1623;stroke:#1A1623;stroke-width:2.5;stroke-linejoin:round;stroke-linecap:round}
      .zing-eye{fill:#F5F0E6;stroke:#1A1623;stroke-width:1.5}
      .zing-pupil{fill:#1A1623}
      .zing-mouth{fill:none;stroke:#1A1623;stroke-width:2;stroke-linecap:round}
      .zing-accent{fill:#D9B83A;stroke:#1A1623;stroke-width:1.5;stroke-linejoin:round;stroke-linecap:round}
      .wing{fill:#4A3A5C;stroke:#1A1623;stroke-width:2;stroke-linejoin:round;stroke-linecap:round}
      .belly{fill:#F5F0E6;stroke:#1A1623;stroke-width:1.5;stroke-linejoin:round}
      .detail{fill:none;stroke:#1A1623;stroke-width:1;stroke-linecap:round}
    </style>
  </defs>
  <path d="M78 170 C66 150 70 110 100 98 C132 108 138 150 124 172 C112 178 90 178 78 170 Z" fill="#4A3A5C" opacity="0.35"/>
  <path class="wing" d="M80 96 C60 82 34 78 18 90 C26 104 22 124 30 136 C44 130 56 138 62 146 C60 132 68 120 76 114 Q80 106 80 96 Z"/>
  <path class="wing" d="M120 96 C140 82 166 78 182 90 C174 104 178 124 170 136 C156 130 144 138 138 146 C140 132 132 120 124 114 Q120 106 120 96 Z"/>
  <path class="zing-body" d="M78 166 C70 150 72 120 86 102 C96 94 108 94 116 104 C128 122 128 152 120 168 C112 174 88 174 78 166 Z"/>
  <path class="belly" d="M86 126 C84 144 90 160 100 162 C110 160 116 144 114 126 C108 122 92 122 86 126 Z"/>
  <path class="zing-accent" d="M100 168 L96 178 L104 176 L98 190 L110 174 L102 174 L106 166 Z"/>
  <path class="zing-body" d="M86 170 L84 184 L90 182 Z"/>
  <path class="zing-body" d="M112 170 L114 184 L108 182 Z"/>
  <circle class="zing-eye" cx="88" cy="120" r="11"/>
  <circle class="zing-pupil" cx="90" cy="122" r="6"/>
  <circle fill="#F5F0E6" cx="86" cy="118" r="1.6"/>
  <path fill="none" stroke="#1A1623" stroke-width="2" stroke-linecap="round" d="M102 122 Q112 118 122 122"/>
  <path class="detail" stroke-width="1.5" d="M78 108 Q88 104 98 108"/>
  <path class="detail" stroke-width="1.5" d="M102 108 Q112 104 122 108"/>
  <path class="zing-mouth" d="M92 140 Q100 142 108 138"/>
  <circle fill="#1A1623" cx="146" cy="60" r="1.5"/>
  <circle fill="#1A1623" cx="156" cy="50" r="2"/>
  <circle fill="#1A1623" cx="168" cy="40" r="2.5"/>
</svg>
