<svg viewBox="0 0 200 200" xmlns="http://www.w3.org/2000/svg" role="img" aria-label="Zing the notification bat, happy">
  <title>Zing</title>
  <defs>
    <style>
      .zing-body{fill:#1A1623;stroke:#1A1623;stroke-width:2.5;stroke-linejoin:round;stroke-linecap:round}
      .zing-eye{fill:none;stroke:#1A1623;stroke-width:2.5;stroke-linecap:round}
      .zing-mouth{fill:#1A1623;stroke:#1A1623;stroke-width:1.5;stroke-linejoin:round}
      .zing-accent{fill:#D9B83A;stroke:#1A1623;stroke-width:1.5;stroke-linejoin:round;stroke-linecap:round}
      .wing{fill:#4A3A5C;stroke:#1A1623;stroke-width:2;stroke-linejoin:round;stroke-linecap:round}
      .belly{fill:#F5F0E6;stroke:#1A1623;stroke-width:1.5;stroke-linejoin:round}
      .detail{fill:none;stroke:#1A1623;stroke-width:1;stroke-linecap:round}
    </style>
  </defs>
  <path d="M78 170 C66 150 70 110 100 98 C132 108 138 150 124 172 C112 178 90 178 78 170 Z" fill="#4A3A5C" opacity="0.35"/>
  <path class="wing" d="M80 94 C58 74 28 66 10 78 C20 94 14 118 22 134 C40 124 54 132 62 144 C60 128 68 116 76 110 Q80 102 80 94 Z"/>
  <path class="detail" d="M26 84 C38 100 52 116 66 126" opacity="0.5"/>
  <path class="wing" d="M120 94 C142 74 172 66 190 78 C180 94 186 118 178 134 C160 124 146 132 138 144 C140 128 132 116 124 110 Q120 102 120 94 Z"/>
  <path class="detail" d="M174 84 C162 100 148 116 134 126" opacity="0.5"/>
  <path class="zing-body" d="M78 166 C70 150 72 120 86 102 C96 94 108 94 116 104 C128 122 128 152 120 168 C112 174 88 174 78 166 Z"/>
  <path class="belly" d="M86 126 C84 144 90 160 100 162 C110 160 116 144 114 126 C108 122 92 122 86 126 Z"/>
  <path class="zing-accent" d="M100 168 L96 178 L104 176 L98 190 L110 174 L102 174 L106 166 Z"/>
  <path class="zing-body" d="M86 170 L84 184 L90 182 Z"/>
  <path class="zing-body" d="M112 170 L114 184 L108 182 Z"/>
  <path class="zing-eye" d="M78 122 Q88 110 98 122"/>
  <path class="zing-eye" d="M102 122 Q112 110 122 122"/>
  <path class="zing-mouth" d="M90 138 C96 148 104 148 110 138 C104 142 96 142 90 138 Z"/>
  <path fill="#F5F0E6" stroke="#1A1623" stroke-width="1" d="M98 140 L104 140 L101 146 Z"/>
</svg>
