<svg viewBox="0 0 200 200" xmlns="http://www.w3.org/2000/svg" role="img" aria-label="Zing the notification bat, surprised">
  <title>Zing</title>
  <defs>
    <style>
      .zing-body{fill:#1A1623;stroke:#1A1623;stroke-width:2.5;stroke-linejoin:round;stroke-linecap:round}
      .zing-eye{fill:#F5F0E6;stroke:#1A1623;stroke-width:1.5}
      .zing-pupil{fill:#1A1623}
      .zing-mouth{fill:#1A1623;stroke:#1A1623;stroke-width:1.5}
      .zing-accent{fill:#D9B83A;stroke:#1A1623;stroke-width:1.5;stroke-linejoin:round;stroke-linecap:round}
      .wing{fill:#4A3A5C;stroke:#1A1623;stroke-width:2;stroke-linejoin:round;stroke-linecap:round}
      .belly{fill:#F5F0E6;stroke:#1A1623;stroke-width:1.5;stroke-linejoin:round}
    </style>
  </defs>
  <path d="M78 170 C66 150 70 110 100 98 C132 108 138 150 124 172 C112 178 90 178 78 170 Z" fill="#4A3A5C" opacity="0.35"/>
  <path class="wing" d="M80 92 C56 70 24 62 6 76 C16 92 8 116 16 134 C36 122 52 132 62 146 C60 128 68 114 76 108 Q80 100 80 92 Z"/>
  <path class="wing" d="M120 92 C144 70 176 62 194 76 C184 92 192 116 184 134 C164 122 148 132 138 146 C140 128 132 114 124 108 Q120 100 120 92 Z"/>
  <path class="zing-body" d="M78 166 C70 150 72 120 86 102 C96 94 108 94 116 104 C128 122 128 152 120 168 C112 174 88 174 78 166 Z"/>
  <path class="belly" d="M86 126 C84 144 90 160 100 162 C110 160 116 144 114 126 C108 122 92 122 86 126 Z"/>
  <path class="zing-accent" d="M100 168 L96 178 L104 176 L98 190 L110 174 L102 174 L106 166 Z"/>
  <path class="zing-body" d="M86 170 L84 184 L90 182 Z"/>
  <path class="zing-body" d="M112 170 L114 184 L108 182 Z"/>
  <circle class="zing-eye" cx="88" cy="120" r="13"/>
  <circle class="zing-eye" cx="112" cy="120" r="13"/>
  <circle class="zing-pupil" cx="89" cy="120" r="2.2"/>
  <circle class="zing-pupil" cx="111" cy="120" r="2.2"/>
  <ellipse class="zing-mouth" cx="100" cy="142" rx="3.5" ry="5"/>
  <path fill="none" stroke="#1A1623" stroke-width="1.5" stroke-linecap="round" d="M70 82 L66 72 M86 72 L84 60 M100 68 L100 56 M114 72 L116 60 M130 82 L134 72"/>
</svg>
